<svg width="16" height="16" viewBox="0 0 16 16" fill="none" xmlns="http://www.w3.org/2000/svg">
<g clip-path="url(#clip0_1_930)">
<path d="M3 2.5C3 2.36739 3.05268 2.24021 3.14645 2.14645C3.24021 2.05268 3.36739 2 3.5 2H8.5C8.63261 2 8.75979 2.05268 8.85355 2.14645C8.94732 2.24021 9 2.36739 9 2.5V7.5C9 7.63261 8.94732 7.75979 8.85355 7.85355C8.75979 7.94732 8.63261 8 8.5 8H3.5C3.36739 8 3.24021 7.94732 3.14645 7.85355C3.05268 7.75979 3 7.63261 3 7.5V2.5Z" fill="#101828"/>
<path d="M1 2C1 1.46957 1.21071 0.960859 1.58579 0.585786C1.96086 0.210714 2.46957 0 3 0L9 0C9.53043 0 10.0391 0.210714 10.4142 0.585786C10.7893 0.960859 11 1.46957 11 2V10C11.5304 10 12.0391 10.2107 12.4142 10.5858C12.7893 10.9609 13 11.4696 13 12V12.5C13 12.6326 13.0527 12.7598 13.1464 12.8536C13.2402 12.9473 13.3674 13 13.5 13C13.6326 13 13.7598 12.9473 13.8536 12.8536C13.9473 12.7598 14 12.6326 14 12.5V8H13.5C13.3674 8 13.2402 7.94732 13.1464 7.85355C13.0527 7.75979 13 7.63261 13 7.5V4.375C13 4.24239 13.0527 4.11521 13.1464 4.02145C13.2402 3.92768 13.3674 3.875 13.5 3.875H14.995C14.984 3.399 14.942 2.981 14.794 2.653C14.7148 2.46228 14.5767 2.30183 14.4 2.195C14.216 2.085 13.936 2 13.5 2C13.3674 2 13.2402 1.94732 13.1464 1.85355C13.0527 1.75979 13 1.63261 13 1.5C13 1.36739 13.0527 1.24021 13.1464 1.14645C13.2402 1.05268 13.3674 1 13.5 1C14.064 0.998667 14.5347 1.11067 14.912 1.336C15.295 1.564 15.546 1.887 15.706 2.243C16.001 2.898 16 3.708 16 4.324V7.499C16.0001 7.56474 15.9873 7.62987 15.9622 7.69065C15.9372 7.75143 15.9003 7.80666 15.8539 7.8532C15.8075 7.89974 15.7523 7.93665 15.6916 7.96184C15.6308 7.98703 15.5657 8 15.5 8H15V12.5C15 12.8978 14.842 13.2794 14.5607 13.5607C14.2794 13.842 13.8978 14 13.5 14C13.1022 14 12.7206 13.842 12.4393 13.5607C12.158 13.2794 12 12.8978 12 12.5V12C12 11.7348 11.8946 11.4804 11.7071 11.2929C11.5196 11.1054 11.2652 11 11 11V15H11.5C11.6326 15 11.7598 15.0527 11.8536 15.1464C11.9473 15.2402 12 15.3674 12 15.5C12 15.6326 11.9473 15.7598 11.8536 15.8536C11.7598 15.9473 11.6326 16 11.5 16H0.5C0.367392 16 0.240215 15.9473 0.146447 15.8536C0.0526784 15.7598 0 15.6326 0 15.5C0 15.3674 0.0526784 15.2402 0.146447 15.1464C0.240215 15.0527 0.367392 15 0.5 15H1V2ZM10 2C10 1.73478 9.89464 1.48043 9.70711 1.29289C9.51957 1.10536 9.26522 1 9 1H3C2.73478 1 2.48043 1.10536 2.29289 1.29289C2.10536 1.48043 2 1.73478 2 2V15H10V2Z" fill="#101828"/>
</g>
<defs>
<clipPath id="clip0_1_930">
<rect width="16" height="16" fill="white"/>
</clipPath>
</defs>
</svg>
