<svg width="102" height="16" viewBox="0 0 102 16" fill="none" xmlns="http://www.w3.org/2000/svg">
<path d="M101.071 7.64526C100.388 7.64526 99.7639 7.68467 99.1991 7.76349C98.6342 7.84231 98.0234 7.99994 97.3666 8.2364V15.7635H93.938V4.57136H96.4799L96.9922 5.89156C97.6753 5.33984 98.3452 4.94575 99.002 4.7093C99.6589 4.47284 100.349 4.35461 101.071 4.35461V7.64526Z" fill="#3470FF"/>
<path d="M92.2984 15.6453C91.878 15.7373 91.5036 15.803 91.1752 15.8424C90.8599 15.8818 90.4855 15.9015 90.052 15.9015C88.791 15.9015 87.9634 15.4943 87.5693 14.6798C87.0176 15.087 86.4658 15.3957 85.9141 15.6059C85.3624 15.8161 84.7581 15.9212 84.1013 15.9212C83.5102 15.9212 82.9781 15.7964 82.5052 15.5468C82.0323 15.2972 81.6645 14.9622 81.4018 14.5419C81.1391 14.1215 81.0077 13.6617 81.0077 13.1626C81.0077 12.3218 81.2179 11.6585 81.6382 11.1724C82.0717 10.6732 82.6497 10.2791 83.3722 9.99014C84.0947 9.68801 85.1916 9.32676 86.6629 8.9064L87.254 8.72906V8.65024C87.254 7.4417 86.7023 6.83743 85.5988 6.83743C85.0602 6.83743 84.4823 6.95566 83.8648 7.19211C83.2474 7.42856 82.5381 7.80952 81.7368 8.33497L81.0865 5.97043C81.9798 5.45812 82.8862 5.05746 83.8057 4.76846C84.7384 4.47946 85.7236 4.33496 86.7614 4.33496C88.0225 4.33496 88.988 4.67651 89.658 5.35959C90.3411 6.04268 90.6826 7.21181 90.6826 8.86699V12.6108C90.6826 12.8998 90.7417 13.11 90.8599 13.2414C90.9782 13.3596 91.1686 13.4187 91.4314 13.4187C91.681 13.4187 91.9305 13.3859 92.1801 13.3202L92.2984 15.6453ZM84.4363 12.7094C84.4363 12.9721 84.502 13.1626 84.6333 13.2808C84.7778 13.399 85.0011 13.4581 85.3033 13.4581C85.855 13.4581 86.5053 13.2217 87.254 12.7488V10.6601L86.9585 10.7586C85.9732 11.1133 85.3033 11.4286 84.9486 11.7044C84.607 11.9672 84.4363 12.3021 84.4363 12.7094Z" fill="#3470FF"/>
<path d="M75.1822 15.9999C73.5533 15.9999 72.174 15.6847 71.0443 15.0541C69.9146 14.4105 69.0673 13.5632 68.5024 12.5123C67.9507 11.4482 67.6748 10.2922 67.6748 9.04427C67.6748 7.80946 67.9638 6.6666 68.5418 5.61569C69.133 4.56479 70.0065 3.72406 71.1625 3.09352C72.3185 2.46298 73.711 2.14771 75.3399 2.14771C76.8637 2.14771 78.2036 2.44327 79.3596 3.03441L78.6502 5.51717C78.1642 5.26758 77.6584 5.07054 77.133 4.92604C76.6075 4.7684 76.0098 4.68958 75.3399 4.68958C74.486 4.68958 73.7438 4.88663 73.1133 5.28072C72.4959 5.66167 72.023 6.18712 71.6946 6.85707C71.3793 7.51389 71.2216 8.24952 71.2216 9.06397C71.2216 10.3513 71.5632 11.4088 72.2463 12.2364C72.9294 13.0508 73.908 13.4581 75.1822 13.4581C76.2726 13.4581 77.4483 13.1888 78.7093 12.6502L79.3793 15.0738C78.8407 15.3497 78.197 15.573 77.4483 15.7438C76.6995 15.9146 75.9442 15.9999 75.1822 15.9999Z" fill="#3470FF"/>
<path d="M61.7835 0H65.2121V15.7636H61.7835V0Z" fill="#101828"/>
<path d="M60.1439 15.6453C59.7235 15.7373 59.3491 15.803 59.0207 15.8424C58.7055 15.8818 58.3311 15.9015 57.8976 15.9015C56.6365 15.9015 55.8089 15.4943 55.4148 14.6798C54.8631 15.087 54.3114 15.3957 53.7596 15.6059C53.2079 15.8161 52.6036 15.9212 51.9468 15.9212C51.3557 15.9212 50.8237 15.7964 50.3508 15.5468C49.8779 15.2972 49.51 14.9622 49.2473 14.5419C48.9846 14.1215 48.8532 13.6617 48.8532 13.1626C48.8532 12.3218 49.0634 11.6585 49.4838 11.1724C49.9173 10.6732 50.4953 10.2791 51.2178 9.99014C51.9403 9.68801 53.0371 9.32676 54.5084 8.9064L55.0995 8.72906V8.65024C55.0995 7.4417 54.5478 6.83743 53.4444 6.83743C52.9058 6.83743 52.3278 6.95566 51.7104 7.19211C51.093 7.42856 50.3836 7.80952 49.5823 8.33497L48.932 5.97043C49.8253 5.45812 50.7317 5.05746 51.6513 4.76846C52.5839 4.47946 53.5692 4.33496 54.6069 4.33496C55.868 4.33496 56.8335 4.67651 57.5035 5.35959C58.1866 6.04268 58.5281 7.21181 58.5281 8.86699V12.6108C58.5281 12.8998 58.5872 13.11 58.7055 13.2414C58.8237 13.3596 59.0142 13.4187 59.2769 13.4187C59.5265 13.4187 59.7761 13.3859 60.0257 13.3202L60.1439 15.6453ZM52.2818 12.7094C52.2818 12.9721 52.3475 13.1626 52.4789 13.2808C52.6234 13.399 52.8467 13.4581 53.1488 13.4581C53.7005 13.4581 54.3508 13.2217 55.0995 12.7488V10.6601L54.804 10.7586C53.8188 11.1133 53.1488 11.4286 52.7941 11.7044C52.4526 11.9672 52.2818 12.3021 52.2818 12.7094Z" fill="#101828"/>
<path d="M47.6242 15.0345C47.2301 15.3104 46.7572 15.5271 46.2054 15.6848C45.6669 15.8293 45.1414 15.9015 44.6291 15.9015C43.2366 15.9015 42.1989 15.5994 41.5158 14.9951C40.8327 14.3777 40.4911 13.4976 40.4911 12.3547V6.99508H38.8163V5.55666L40.9246 4.70936L41.8705 1.69458H43.9197V4.57143H47.0724V6.99508H43.9197V11.5271C43.9197 12.2233 44.0314 12.7159 44.2547 13.0049C44.478 13.2939 44.813 13.4384 45.2596 13.4384C45.8376 13.4384 46.4485 13.2677 47.0921 12.9261L47.6242 15.0345Z" fill="#101828"/>
<path d="M33.1902 4.33496C34.6483 4.33496 35.6532 4.72248 36.205 5.49752C36.7698 6.27257 37.0523 7.38915 37.0523 8.84728V15.7636H33.6237V9.28078C33.6237 8.36124 33.512 7.72413 33.2887 7.36945C33.0785 7.01477 32.6647 6.83743 32.0473 6.83743C31.3774 6.83743 30.6943 7.06075 29.9981 7.50738V15.7636H26.5695V4.57142H29.1113L29.466 5.49752C30.7534 4.72248 31.9948 4.33496 33.1902 4.33496Z" fill="#101828"/>
<path d="M17.0284 10.798C17.094 11.7307 17.3239 12.4204 17.718 12.867C18.1121 13.3136 18.7164 13.5369 19.5308 13.5369C20.1351 13.5369 20.6934 13.4319 21.2057 13.2217C21.7312 12.9984 22.3289 12.67 22.9988 12.2365L23.9249 14.4039C23.2287 14.9688 22.539 15.376 21.856 15.6256C21.1729 15.8752 20.3913 16 19.5111 16C18.2106 16 17.1203 15.7504 16.2402 15.2512C15.36 14.7389 14.7032 14.0493 14.2697 13.1823C13.8494 12.3021 13.6392 11.3038 13.6392 10.1872C13.6392 8.41379 14.1384 6.99506 15.1367 5.93102C16.1351 4.86698 17.5932 4.33496 19.5111 4.33496C21.0349 4.33496 22.1909 4.74875 22.9791 5.57634C23.7804 6.39079 24.1877 7.55336 24.2008 9.06403C24.2008 9.65517 24.1154 10.2332 23.9446 10.798H17.0284ZM20.8707 8.57142C20.8839 8.4926 20.8904 8.38751 20.8904 8.25615C20.8773 7.71756 20.7328 7.31034 20.4569 7.03447C20.1811 6.74547 19.8001 6.60098 19.3141 6.60098C18.1581 6.60098 17.4356 7.25779 17.1466 8.57142H20.8707Z" fill="#101828"/>
<path d="M5.43843 10.8374H3.5468V15.7635H0V2.3645H5.35962C7.27752 2.3645 8.67654 2.69291 9.55667 3.34972C10.4368 3.9934 10.8769 5.01147 10.8769 6.40392C10.8769 8.21673 10.2135 9.43184 8.88672 10.0492L12.6503 15.7635H8.55174L5.43843 10.8374ZM3.5468 8.37436H5.35962C6.05584 8.37436 6.55502 8.22987 6.85716 7.94087C7.17243 7.65187 7.33006 7.20523 7.33006 6.60096C7.33006 5.97042 7.179 5.51722 6.87686 5.24135C6.57472 4.96549 6.06898 4.82756 5.35962 4.82756H3.5468V8.37436Z" fill="#101828"/>
</svg>
